<svg xmlns="http://www.w3.org/2000/svg" width="900" height="420"><style>text{font-family:Arial,sans-serif;font-size:12px} .axis{stroke:#444;stroke-width:1} .line{fill:none;stroke:#2563eb;stroke-width:2} .move{stroke:#f59e0b;stroke-width:1.5;stroke-dasharray:6 4}</style><text x="450.0" y="18" text-anchor="middle">Load Generator End-to-End Latency</text><line class="axis" x1="60" y1="375" x2="880" y2="375"/><line class="axis" x1="60" y1="30" x2="60" y2="375"/><polyline class="line" points="60.0,30.0 61.5,65.7 63.1,269.8 64.6,264.7 66.2,264.7 67.7,283.6 69.3,280.6 70.8,274.2 72.4,254.5 73.9,277.3 75.5,254.1 77.0,257.4 78.6,277.2 80.1,274.5 81.7,265.5 83.2,273.0 84.8,271.8 86.3,272.4 87.8,282.0 89.4,268.7 90.9,274.9 92.5,271.2 94.0,279.4 95.6,268.5 97.1,225.9 98.7,251.5 100.2,270.6 101.8,223.0 103.3,50.7 104.9,277.6 106.4,280.9 108.0,278.1 109.5,253.4 111.1,269.6 112.6,278.0 114.2,252.3 115.7,267.7 117.2,260.2 118.8,284.3 120.3,269.0 121.9,290.9 123.4,253.3 125.0,281.3 126.5,281.4 128.1,275.0 129.6,257.1 131.2,259.2 132.7,280.3 134.3,284.7 135.8,261.2 137.4,263.3 138.9,273.7 140.5,267.7 142.0,115.2 143.5,266.8 145.1,249.3 146.6,248.4 148.2,290.3 149.7,266.3 151.3,290.7 152.8,272.4 154.4,287.0 155.9,267.4 157.5,274.2 159.0,272.5 160.6,260.9 162.1,285.7 163.7,277.3 165.2,269.2 166.8,263.9 168.3,278.5 169.8,267.5 171.4,280.7 172.9,266.5 174.5,268.6 176.0,277.6 177.6,289.2 179.1,285.9 180.7,296.6 182.2,270.7 183.8,265.4 185.3,266.4 186.9,280.2 188.4,281.8 190.0,268.4 191.5,280.2 193.1,284.0 194.6,277.2 196.2,276.2 197.7,271.7 199.2,264.8 200.8,284.0 202.3,244.9 203.9,286.6 205.4,267.3 207.0,280.8 208.5,275.9 210.1,283.3 211.6,273.7 213.2,287.5 214.7,289.6 216.3,275.6 217.8,278.6 219.4,266.0 220.9,284.6 222.5,261.8 224.0,292.2 225.5,251.1 227.1,289.9 228.6,262.3 230.2,275.6 231.7,273.4 233.3,281.1 234.8,263.1 236.4,267.1 237.9,237.1 239.5,274.6 241.0,281.3 242.6,253.6 244.1,285.1 245.7,262.3 247.2,260.1 248.8,286.3 250.3,270.0 251.8,274.9 253.4,279.8 254.9,274.3 256.5,278.6 258.0,265.2 259.6,265.3 261.1,280.5 262.7,268.8 264.2,272.4 265.8,250.8 267.3,245.8 268.9,264.9 270.4,267.1 272.0,265.1 273.5,278.5 275.1,283.8 276.6,289.2 278.2,285.7 279.7,265.6 281.2,263.0 282.8,286.3 284.3,296.0 285.9,283.0 287.4,280.4 289.0,286.0 290.5,261.0 292.1,265.1 293.6,272.0 295.2,274.9 296.7,279.0 298.3,272.0 299.8,274.1 301.4,283.7 302.9,283.1 304.5,262.6 306.0,266.2 307.5,280.1 309.1,281.1 310.6,282.8 312.2,261.1 313.7,268.6 315.3,273.6 316.8,259.5 318.4,284.0 319.9,264.8 321.5,275.7 323.0,270.2 324.6,280.6 326.1,278.1 327.7,282.2 329.2,255.8 330.8,280.8 332.3,276.8 333.8,287.0 335.4,262.9 336.9,260.9 338.5,280.6 340.0,279.8 341.6,289.2 343.1,279.1 344.7,262.0 346.2,268.4 347.8,280.6 349.3,264.3 350.9,286.7 352.4,276.1 354.0,277.3 355.5,291.2 357.1,281.1 358.6,262.1 360.2,264.9 361.7,269.3 363.2,272.8 364.8,281.9 366.3,271.5 367.9,286.8 369.4,262.7 371.0,285.3 372.5,273.3 374.1,283.5 375.6,268.5 377.2,277.4 378.7,277.4 380.3,274.7 381.8,292.1 383.4,277.6 384.9,270.0 386.5,267.0 388.0,267.3 389.5,265.4 391.1,266.2 392.6,263.2 394.2,268.3 395.7,263.6 397.3,283.2 398.8,289.6 400.4,272.2 401.9,250.1 403.5,279.3 405.0,267.7 406.6,277.8 408.1,281.6 409.7,282.5 411.2,281.3 412.8,253.2 414.3,280.9 415.8,281.1 417.4,274.3 418.9,270.2 420.5,284.1 422.0,279.3 423.6,265.1 425.1,231.5 426.7,256.3 428.2,231.1 429.8,254.1 431.3,236.3 432.9,194.4 434.4,252.1 436.0,266.5 437.5,290.5 439.1,279.3 440.6,291.7 442.2,282.6 443.7,264.8 445.2,266.3 446.8,268.8 448.3,228.0 449.9,282.5 451.4,270.8 453.0,279.2 454.5,280.5 456.1,277.3 457.6,287.3 459.2,249.1 460.7,278.1 462.3,286.4 463.8,279.9 465.4,282.3 466.9,282.6 468.5,273.7 470.0,285.6 471.5,276.6 473.1,281.7 474.6,272.7 476.2,274.9 477.7,265.9 479.3,269.8 480.8,291.7 482.4,291.1 483.9,292.1 485.5,277.6 487.0,272.0 488.6,267.0 490.1,280.5 491.7,284.3 493.2,269.8 494.8,272.7 496.3,283.3 497.8,293.6 499.4,265.9 500.9,279.7 502.5,283.9 504.0,280.6 505.6,267.0 507.1,289.5 508.7,267.3 510.2,292.8 511.8,267.3 513.3,271.4 514.9,280.1 516.4,275.7 518.0,274.1 519.5,273.4 521.1,273.5 522.6,285.1 524.2,278.0 525.7,290.2 527.2,269.0 528.8,276.8 530.3,255.8 531.9,228.3 533.4,65.7 535.0,219.6 536.5,250.7 538.1,65.7 539.6,270.4 541.2,267.3 542.7,264.7 544.3,286.5 545.8,278.8 547.4,266.6 548.9,289.6 550.5,275.4 552.0,263.5 553.5,252.3 555.1,278.4 556.6,248.2 558.2,288.7 559.7,292.4 561.3,276.6 562.8,261.1 564.4,291.1 565.9,249.5 567.5,157.0 569.0,280.1 570.6,264.4 572.1,283.5 573.7,289.8 575.2,273.8 576.8,292.3 578.3,278.9 579.8,271.2 581.4,297.5 582.9,263.4 584.5,268.4 586.0,281.1 587.6,296.7 589.1,281.3 590.7,282.3 592.2,293.0 593.8,289.9 595.3,274.7 596.9,264.5 598.4,292.6 600.0,231.6 601.5,282.2 603.1,296.3 604.6,288.1 606.2,289.9 607.7,299.5 609.2,272.3 610.8,291.6 612.3,277.7 613.9,267.7 615.4,286.4 617.0,289.3 618.5,274.3 620.1,288.5 621.6,287.3 623.2,275.3 624.7,280.3 626.3,298.7 627.8,296.5 629.4,293.9 630.9,284.8 632.5,283.1 634.0,291.5 635.5,282.6 637.1,272.1 638.6,305.2 640.2,288.3 641.7,304.2 643.3,265.7 644.8,304.2 646.4,291.3 647.9,308.9 649.5,329.9 651.0,329.1 652.6,315.5 654.1,310.1 655.7,316.4 657.2,328.1 658.8,326.5 660.3,324.4 661.8,329.5 663.4,332.5 664.9,319.4 666.5,312.0 668.0,316.6 669.6,321.6 671.1,333.0 672.7,325.9 674.2,327.2 675.8,307.6 677.3,323.0 678.9,332.0 680.4,333.3 682.0,328.8 683.5,327.8 685.1,332.8 686.6,333.2 688.2,68.1 689.7,326.4 691.2,323.0 692.8,331.4 694.3,326.5 695.9,329.8 697.4,296.4 699.0,332.0 700.5,315.9 702.1,300.0 703.6,331.7 705.2,312.0 706.7,329.5 708.3,324.1 709.8,322.7 711.4,318.9 712.9,321.6 714.5,331.0 716.0,329.5 717.5,327.7 719.1,329.0 720.6,290.7 722.2,285.2 723.7,282.1 725.3,319.6 726.8,332.5 728.4,330.2 729.9,326.4 731.5,332.6 733.0,330.6 734.6,332.0 736.1,324.1 737.7,332.6 739.2,328.0 740.8,310.2 742.3,323.3 743.8,331.0 745.4,327.7 746.9,331.0 748.5,323.0 750.0,329.7 751.6,324.8 753.1,328.8 754.7,328.3 756.2,307.1 757.8,332.8 759.3,333.3 760.9,327.5 762.4,315.6 764.0,312.1 765.5,315.7 767.1,306.2 768.6,329.4 770.2,330.6 771.7,326.5 773.2,328.2 774.8,313.9 776.3,307.0 777.9,330.2 779.4,313.7 781.0,331.2 782.5,304.6 784.1,307.8 785.6,314.7 787.2,331.9 788.7,329.2 790.3,312.1 791.8,325.3 793.4,328.8 794.9,321.7 796.5,332.8 798.0,328.5 799.5,326.6 801.1,323.1 802.6,330.1 804.2,308.9 805.7,332.0 807.3,327.5 808.8,327.2 810.4,330.0 811.9,323.0 813.5,329.7 815.0,328.0 816.6,327.8 818.1,309.9 819.7,327.0 821.2,329.5 822.8,325.0 824.3,330.4 825.8,327.3 827.4,331.7 828.9,314.6 830.5,327.9 832.0,331.0 833.6,327.5 835.1,323.0 836.7,333.1 838.2,322.6 839.8,333.9 841.3,322.6 842.9,316.5 844.4,328.0 846.0,326.9 847.5,309.4 849.1,314.2 850.6,318.3 852.2,322.6 853.7,325.9 855.2,329.3 856.8,332.0 858.3,331.8 859.9,311.9 861.4,331.1 863.0,327.9 864.5,327.0 866.1,329.8 867.6,331.9 869.2,330.0 870.7,332.3 872.3,329.7 873.8,321.0 875.4,333.8 876.9,327.7 878.5,320.1 880.0,333.0"/><line class="move" x1="535.0" y1="30" x2="535.0" y2="375"/><text x="539.0" y="40" fill="#b45309" font-size="11">auth → db</text><line class="move" x1="575.2" y1="30" x2="575.2" y2="375"/><text x="579.2" y="90" fill="#b45309" font-size="11">gateway → auth</text><line class="move" x1="623.2" y1="30" x2="623.2" y2="375"/><text x="627.2" y="140" fill="#b45309" font-size="11">user → db</text></svg>