<svg xmlns="http://www.w3.org/2000/svg" width="900" height="420"><style>text{font-family:Arial,sans-serif;font-size:12px} .label{fill:#333} .axis{stroke:#444;stroke-width:1} .before{fill:#ef4444} .after{fill:#10b981}</style><text x="450.0" y="18" text-anchor="middle">Service Pair P95 Latency Before vs After</text><line class="axis" x1="70" y1="310" x2="880" y2="310"/><line class="axis" x1="70" y1="30" x2="70" y2="310"/><rect class="before" x="101.2" y="30.0" width="44.8" height="280.0"/><rect class="after" x="154.0" y="131.1" width="44.8" height="178.9"/><text class="label" transform="translate(150.0,328) rotate(30)" text-anchor="start">loadgen->gateway</text><rect class="before" x="261.2" y="224.3" width="44.8" height="85.7"/><rect class="after" x="314.0" y="246.4" width="44.8" height="63.6"/><text class="label" transform="translate(310.0,328) rotate(30)" text-anchor="start">gateway->user-service</text><rect class="before" x="421.2" y="306.7" width="44.8" height="3.3"/><rect class="after" x="474.0" y="262.9" width="44.8" height="47.1"/><text class="label" transform="translate(470.0,328) rotate(30)" text-anchor="start">gateway->logger-service</text><rect class="before" x="581.2" y="224.4" width="44.8" height="85.6"/><rect class="after" x="634.0" y="296.2" width="44.8" height="13.8"/><text class="label" transform="translate(630.0,328) rotate(30)" text-anchor="start">gateway->auth-service</text><rect class="before" x="741.2" y="248.1" width="44.8" height="61.9"/><rect class="after" x="794.0" y="304.4" width="44.8" height="5.6"/><text class="label" transform="translate(790.0,328) rotate(30)" text-anchor="start">auth-service->db-service</text><rect class="before" x="680" y="40" width="14" height="14"/><text x="700" y="52">Before</text><rect class="after" x="770" y="40" width="14" height="14"/><text x="790" y="52">After</text></svg>